<?xml version="1.0" standalone="no"?>
<!DOCTYPE svg PUBLIC "-//W3C//DTD SVG 20010904//EN"
 "http://www.w3.org/TR/2001/REC-SVG-20010904/DTD/svg10.dtd">
<svg version="1.0" xmlns="http://www.w3.org/2000/svg"
 width="99.000000pt" height="98.000000pt" viewBox="0 0 99.000000 98.000000"
 preserveAspectRatio="xMidYMid meet">

<g transform="translate(0.000000,98.000000) scale(0.100000,-0.100000)"
fill="#000000" stroke="none">
<path d="M123 900 c-13 -5 -23 -18 -23 -29 0 -26 -16 -35 -28 -16 -7 13 -10
11 -21 -11 -11 -24 -10 -30 8 -47 28 -28 134 -26 171 3 51 40 109 71 151 79
l44 9 -46 1 c-26 1 -77 -8 -114 -20 -61 -19 -69 -19 -83 -5 -13 12 -13 18 -2
30 11 14 9 16 -11 15 -13 0 -34 -4 -46 -9z"/>
<path d="M426 648 c-20 -28 -20 -62 -1 -82 56 -56 147 6 109 75 l-13 24 -1
-22 c0 -13 -5 -23 -10 -23 -6 0 -8 -11 -4 -27 4 -16 4 -25 0 -21 -4 3 -21 2
-37 -2 -28 -8 -29 -8 -29 26 0 20 5 44 10 55 15 27 -5 25 -24 -3z"/>
<path d="M298 396 c-10 -7 -18 -21 -18 -31 0 -10 3 -15 7 -12 3 4 12 2 20 -5
7 -6 17 -8 20 -4 4 4 1 11 -7 16 -9 6 -10 10 -3 10 7 0 16 -7 21 -16 6 -11 11
-13 16 -5 4 6 2 11 -3 11 -6 0 -11 7 -11 15 0 8 5 15 12 15 6 0 8 3 4 7 -12
13 -41 12 -58 -1z"/>
<path d="M383 394 c-2 -7 -3 -23 0 -36 4 -20 5 -19 7 7 2 29 2 29 9 6 10 -37
29 -38 25 -1 -2 16 1 30 6 30 6 0 10 -11 10 -24 0 -14 5 -28 10 -31 6 -4 10 7
10 24 0 17 -3 32 -7 33 -33 6 -66 3 -70 -8z"/>
<path d="M480 400 c0 -5 5 -10 10 -10 6 0 10 -7 10 -15 0 -8 -4 -15 -10 -15
-5 0 -10 -5 -10 -10 0 -7 6 -8 17 -2 9 5 29 6 44 2 30 -9 49 3 49 31 0 18 -41
31 -61 18 -7 -4 -21 -3 -31 2 -12 6 -18 6 -18 -1z"/>
<path d="M628 403 c16 -3 20 -8 13 -16 -6 -8 -5 -19 5 -32 13 -18 14 -17 11
15 -3 29 -9 35 -28 37 -24 1 -24 1 -1 -4z"/>
</g>
</svg>
